<svg xmlns="http://www.w3.org/2000/svg" viewBox="0 0 280 60" fill="none">
  <!-- Shield with Star -->
  <path d="M30 3L3 14V36C3 48 15 56 30 59C45 56 57 48 57 36V14L30 3Z" fill="transparent" stroke="#C9A227" stroke-width="2.5"/>

  <!-- Inner Shield Detail -->
  <path d="M30 8L8 17V35C8 44 17 51 30 53C43 51 52 44 52 35V17L30 8Z" fill="rgba(255,255,255,0.1)"/>

  <!-- Star -->
  <path d="M30 14L33 23H42L35 29L37.5 38L30 32L22.5 38L25 29L18 23H27L30 14Z" fill="#C9A227"/>

  <!-- Growth Arrow -->
  <path d="M44 42L50 32L56 42" stroke="#C9A227" stroke-width="3" stroke-linecap="round" stroke-linejoin="round"/>
  <path d="M50 32V48" stroke="#C9A227" stroke-width="3" stroke-linecap="round"/>

  <!-- Text: VETS -->
  <text x="70" y="32" font-family="system-ui, -apple-system, sans-serif" font-weight="800" font-size="26" fill="#FFFFFF" letter-spacing="1">VETS</text>

  <!-- Text: THRIVE -->
  <text x="138" y="32" font-family="system-ui, -apple-system, sans-serif" font-weight="800" font-size="26" fill="#C9A227" letter-spacing="1">THRIVE</text>

  <!-- Underline -->
  <rect x="70" y="38" width="160" height="3" fill="#C9A227" rx="1.5"/>

  <!-- Foundation Text -->
  <text x="70" y="54" font-family="system-ui, -apple-system, sans-serif" font-weight="500" font-size="11" fill="rgba(255,255,255,0.7)" letter-spacing="3">FOUNDATION</text>
</svg>